<svg enable-background="new 0 0 36 36" viewBox="0 0 36 36" xmlns="http://www.w3.org/2000/svg"><g clip-rule="evenodd" fill-rule="evenodd"><path d="m21.8 6.5-.4-.4c-.2-.2-.4-.4-.5-.5-.2-.2-.5-.4-.8-.5.8 1.6.5 3 .5 3 0 1.5-.7 2.7-1.4 3.8-.2.4-.5.8-.9 1.2-2 2.6 2.1 7.2 2.1 7.2.4-1.3 1.7-2.7 2-2.9 2.3-2.2 4.6-5 2.1-8z" fill="#d192b7"/><path d="m27.6 12.2c-.1.4.1.7-.2 1.7-.9 3.1-5.9 7.3-8.5 10.2-2.4 2.6-2.7 5.6-1 8.6.2.3 1.3 2 1.8 2.2.1-.7-.1-.7.2-1.7.6-2.3 4.4-6 6.5-8.1.7-.7 1.4-1.4 2-2.1.2-.2.3-.4.4-.5l1.3-1.3c1.8-1.8 1.8-4.7 0-6.5l-2-2c-.2-.2-.4-.4-.5-.5" fill="#d192b7"/><g fill="#8e49b6"><path d="m14.2 29.5.4.4.5.5c.2.2.5.4.8.5-.8-1.6-.5-3.1-.5-3.1 0-1.5.7-2.7 1.4-3.8.2-.4.5-.8.9-1.3 2-2.6-2.1-7.2-2.1-7.2-.4 1.3-1.8 2.7-2 3-2.3 2.2-4.6 5.1-2.2 8z"/><path d="m8.4 23.8c.1-.4-.1-.7.2-1.7.9-3.1 5.9-7.3 8.5-10.2 2.4-2.6 2.7-5.6 1-8.6-.2-.3-1.3-2-1.8-2.2-.1.7.1.7-.2 1.7-.6 2.3-4.4 6-6.5 8.1-.7.7-1.4 1.4-2 2.1-.2.2-.3.4-.4.5l-1.3 1.3c-1.8 1.8-1.8 4.7 0 6.5l2 2c.2.2.4.4.5.5"/></g></g></svg>